# xmcd
#
# Track frame offsets:
#	150
#	29466
#	50967
#	66571
#	86069
#	102643
#	131010
#	147404
#	169666
#	185580
#	202576
#	226513
#	250620
#	267156
#	285775
#
# Disc length: 4335 seconds
#
# Revision: 0
# Processed by: cddbd v1.5.2PL0 Copyright (c) Steve Scherf et al.
# Submitted via: EasyCDDAExtractor 16.0.1.1
#
DISCID=d610ed0f
DTITLE=Charlie Daniels Band - Live At Rock Palast
DYEAR=1900
DGENRE=
TTITLE0=Funky Junky
TTITLE1=Trudy
TTITLE2=Jitterburg
TTITLE3=Legend Of Wooley Swamp
TTITLE4=Blindman
TTITLE5=Reflections
TTITLE6=El Toreador
TTITLE7=No Potion For The Pain
TTITLE8=In America
TTITLE9=Long Haired Country Boy
TTITLE10=Uneasy Rider
TTITLE11=Cumberland Mountain No.9
TTITLE12=Devil Went Down To Georgia
TTITLE13=The South's Gonna Do It Again
TTITLE14=Orange Blossom Special
EXTD=
EXTT0=
EXTT1=
EXTT2=
EXTT3=
EXTT4=
EXTT5=
EXTT6=
EXTT7=
EXTT8=
EXTT9=
EXTT10=
EXTT11=
EXTT12=
EXTT13=
EXTT14=
PLAYORDER=
